# xmcd
#
# Track frame offsets:
#	150
#	19684
#	38533
#	60242
#	97095
#	128420
#	155151
#	181164
#	215428
#	234934
#	266792
#	297940
#
# Disc length: 4304 seconds
#
# Revision: 0
# Processed by: cddbd v1.5.2PL0 Copyright (c) Steve Scherf et al.
# Submitted via: EZCDAudioConverter 2.1.7.1
#
DISCID=9c10ce0c
DTITLE=V/A - The Green Collection 1/2
DYEAR=1900
DGENRE=
TTITLE0=Knight One - Shimmer
TTITLE1=Alexander Skancke featuring Hewrote - Found My Place
TTITLE2=Horixon featuring Jacques Teal - Great Things
TTITLE3=Vinny Villbass featuring Ost - Lust For Wrong
TTITLE4=Mees Dierdorp - Aviar Alom
TTITLE5=Nteibint - Baby
TTITLE6=Kraak and Smaak - Ghostnote
TTITLE7=Duncan Gray - Beeech
TTITLE8=Blende - Sparkle
TTITLE9=Trulz and Robin featuring Camilla Luna - Me To You
TTITLE10=Man Power - Skattejag
TTITLE11=Satin Jackets featuring Patrick Baker - Fall Apart
EXTD=
EXTT0=
EXTT1=
EXTT2=
EXTT3=
EXTT4=
EXTT5=
EXTT6=
EXTT7=
EXTT8=
EXTT9=
EXTT10=
EXTT11=
PLAYORDER=
